<svg width="56" height="56" viewBox="0 0 56 56" fill="none" xmlns="http://www.w3.org/2000/svg">
<path d="M48.5789 37.9094C46.2547 36.5641 43.4219 36.925 41.5133 38.6094L38.6149 36.9305V28.6344C38.6149 27.7758 38.1555 26.9773 37.4117 26.5508L29.9742 22.2687V18.5992C32.3914 17.7789 34.1305 15.493 34.1305 12.7969C34.1305 9.41172 31.3906 6.67188 28.0055 6.67188C24.6203 6.67188 21.8805 9.41172 21.8805 12.7969C21.8805 15.493 23.6195 17.7789 26.0367 18.5992V22.2687L18.5992 26.5508C17.8555 26.9773 17.3961 27.7758 17.3961 28.6344V36.925L14.4977 38.6039C12.5891 36.9195 9.75079 36.5586 7.43204 37.9039C4.50626 39.5992 3.51094 43.3398 5.18985 46.2656C6.87423 49.1914 10.5984 50.1977 13.5133 48.5078C15.8375 47.1625 16.9422 44.5156 16.4445 42.0109L19.1078 40.4633L26.7969 44.893C27.1688 45.1062 27.5844 45.2156 28 45.2156C28.4156 45.2156 28.8313 45.1062 29.2031 44.893L36.8867 40.4687L39.55 42.0164C39.0524 44.5156 40.1625 47.168 42.4813 48.5133C45.3961 50.2031 49.1258 49.2023 50.8047 46.2711C52.4891 43.3398 51.4938 39.5992 48.5789 37.9094ZM11.7742 45.4781C11.4772 45.6502 11.1491 45.7618 10.8087 45.8065C10.4684 45.8512 10.1226 45.8282 9.79116 45.7387C9.45976 45.6493 9.14932 45.4951 8.87772 45.2852C8.60612 45.0753 8.37872 44.8138 8.2086 44.5156C7.48673 43.2633 7.91329 41.6555 9.16563 40.9336C9.46267 40.7616 9.7908 40.65 10.1311 40.6052C10.4715 40.5605 10.8173 40.5835 11.1487 40.673C11.4801 40.7625 11.7905 40.9166 12.0621 41.1265C12.3337 41.3364 12.5611 41.5979 12.7313 41.8961C13.4531 43.1484 13.0266 44.7562 11.7742 45.4781ZM25.375 12.7969C25.389 12.11 25.6718 11.4559 26.1625 10.9751C26.6533 10.4942 27.313 10.2249 28 10.2249C28.6871 10.2249 29.3468 10.4942 29.8375 10.9751C30.3283 11.4559 30.611 12.11 30.625 12.7969C30.611 13.4838 30.3283 14.1378 29.8375 14.6187C29.3468 15.0995 28.6871 15.3688 28 15.3688C27.313 15.3688 26.6533 15.0995 26.1625 14.6187C25.6718 14.1378 25.389 13.4838 25.375 12.7969ZM34.6719 37.1984L28 41.043L21.3281 37.1984V29.5203L28 25.6758L34.6719 29.5203V37.1984ZM47.7914 44.5211C47.0695 45.7734 45.4727 46.2055 44.2258 45.4836C42.9789 44.7617 42.5469 43.1539 43.2688 41.9016C43.9906 40.6492 45.5875 40.2172 46.8344 40.9391C48.0867 41.6609 48.5133 43.2633 47.7914 44.5211Z" fill="#CCFFD3"/>
</svg>
