<svg width="56" height="56" viewBox="0 0 56 56" fill="none" xmlns="http://www.w3.org/2000/svg">
<g clip-path="url(#clip0_131_86)">
<path d="M21 52.5H7C6.07207 52.4989 5.18245 52.1298 4.5263 51.4737C3.87016 50.8176 3.50107 49.9279 3.5 49V42C3.50107 41.0721 3.87016 40.1824 4.5263 39.5263C5.18245 38.8702 6.07207 38.5011 7 38.5H21C21.9279 38.5011 22.8176 38.8702 23.4737 39.5263C24.1298 40.1824 24.4989 41.0721 24.5 42V49C24.4989 49.9279 24.1298 50.8176 23.4737 51.4737C22.8176 52.1298 21.9279 52.4989 21 52.5ZM7 42V49H21V42H7Z" fill="#CCFFD3"/>
<path d="M49 35H21C20.0721 34.9989 19.1825 34.6298 18.5263 33.9737C17.8702 33.3176 17.5011 32.4279 17.5 31.5V24.5C17.5011 23.5721 17.8702 22.6825 18.5263 22.0263C19.1825 21.3702 20.0721 21.0011 21 21H49C49.9279 21.0011 50.8176 21.3702 51.4737 22.0263C52.1298 22.6825 52.4989 23.5721 52.5 24.5V31.5C52.4989 32.4279 52.1298 33.3176 51.4737 33.9737C50.8176 34.6298 49.9279 34.9989 49 35ZM21 24.5V31.5H49V24.5H21Z" fill="#CCFFD3"/>
<path d="M28 17.5H7C6.07207 17.4989 5.18245 17.1298 4.5263 16.4737C3.87016 15.8175 3.50107 14.9279 3.5 14V7C3.50107 6.07207 3.87016 5.18245 4.5263 4.5263C5.18245 3.87016 6.07207 3.50107 7 3.5H28C28.9279 3.50107 29.8176 3.87016 30.4737 4.5263C31.1298 5.18245 31.4989 6.07207 31.5 7V14C31.4989 14.9279 31.1298 15.8175 30.4737 16.4737C29.8176 17.1298 28.9279 17.4989 28 17.5ZM7 7V14H28V7H7Z" fill="#CCFFD3"/>
</g>
<defs>
<clipPath id="clip0_131_86">
<rect width="56" height="56" fill="white"/>
</clipPath>
</defs>
</svg>
