<svg width="148" height="50" viewBox="0 0 148 50" fill="none" xmlns="http://www.w3.org/2000/svg">
<path d="M48.7778 12.9201C48.0444 12.9201 47.4222 12.6703 46.9111 12.148C46.4 11.6258 46.1555 11.0127 46.1555 10.2861C46.1555 9.55949 46.4 8.96911 46.9111 8.44686C47.4222 7.92461 48.0444 7.67484 48.7778 7.67484C49.5111 7.67484 50.1555 7.92461 50.6444 8.44686C51.1333 8.96911 51.4 9.58219 51.4 10.2861C51.4 10.99 51.1555 11.6712 50.6444 12.1707C50.1333 12.6703 49.5111 12.9428 48.7778 12.9428V12.9201ZM46.6222 31.5395V15.2134L51 14.3506V31.5395H46.6222Z" fill="white"/>
<path d="M52.9333 31.5395V15.2134L57.2444 14.3506V16.871C58.1333 14.941 59.8444 13.9646 62.4 13.9646C64.9555 13.9646 64.6889 14.2598 65.6667 14.8274C66.6444 15.3951 67.4 16.2125 67.9555 17.2797C68.5111 18.3469 68.8 19.5958 68.8 21.049V31.5622H64.4222V22.139C64.4222 20.6403 64.0889 19.5504 63.4222 18.8919C62.7555 18.2107 61.8889 17.8928 60.8 17.8928C59.7111 17.8928 59.0667 18.2334 58.3555 18.8919C57.6444 19.5731 57.3111 20.6403 57.3111 22.139V31.5622H52.9333V31.5395Z" fill="white"/>
<path d="M78.7555 38.6013C77.0444 38.6013 75.5333 38.3742 74.2 37.8974C72.8667 37.4205 71.7111 36.5804 70.6889 35.3769L73.4 32.1072C74.2 33.0381 75.0222 33.6512 75.8889 33.9918C76.7555 34.3324 77.7111 34.4914 78.7778 34.4914C79.8444 34.4914 80.2667 34.287 80.9555 33.901C81.6222 33.515 82.1555 32.9473 82.5555 32.2207C82.9555 31.4941 83.1555 30.6994 83.1555 29.7911V29.0191C82.7111 29.8138 82.0889 30.4496 81.2889 30.9264C80.5111 31.4033 79.4222 31.653 78.0667 31.653C76.7111 31.653 75.1555 31.267 73.9111 30.4723C72.6667 29.6776 71.6889 28.6103 70.9778 27.2707C70.2667 25.931 69.9111 24.4323 69.9111 22.7975C69.9111 21.1626 70.2667 19.6412 70.9778 18.3015C71.6889 16.9618 72.6667 15.8946 73.9111 15.0999C75.1555 14.3279 76.5333 13.9192 78.0667 13.9192C79.6 13.9192 80.5555 14.1689 81.3555 14.6912C82.1333 15.1907 82.7555 15.8719 83.2222 16.7121V15.2361L87.5333 14.3733V30.0409C87.5333 31.812 87.1555 33.3333 86.4222 34.6049C85.6667 35.8765 84.6444 36.8756 83.3333 37.5568C82.0222 38.2607 80.4889 38.6013 78.7778 38.6013H78.7555ZM78.8 27.5885C80.2444 27.5885 81.3778 27.1344 82.1555 26.2034C82.9555 25.2725 83.3555 24.1371 83.3555 22.7975C83.3555 21.4578 82.9555 20.3224 82.1555 19.3915C81.3555 18.4605 80.2444 18.0064 78.8 18.0064C77.3555 18.0064 76.2667 18.4605 75.4889 19.3915C74.7111 20.3224 74.3111 21.4578 74.3111 22.7975C74.3111 24.1371 74.4889 24.455 74.8444 25.1816C75.2 25.9083 75.7111 26.4986 76.3778 26.9301C77.0444 27.3615 77.8667 27.5885 78.8 27.5885Z" fill="white"/>
<path d="M97.5333 31.9709C95.8 31.9709 94.2889 31.5622 92.9778 30.7448C91.6666 29.9273 90.6444 28.8374 89.9111 27.4977C89.1778 26.1353 88.8222 24.6367 88.8222 22.9791C88.8222 21.3215 89.2 19.8002 89.9555 18.4378C90.7111 17.0527 91.7333 15.9628 93.0444 15.1453C94.3555 14.3279 95.8444 13.9192 97.5333 13.9192C99.2222 13.9192 100.689 14.3279 101.978 15.1453C103.267 15.9628 104.267 17.0527 104.978 18.4378C105.711 19.8229 106.067 21.3215 106.067 22.9791C106.067 24.6367 106.067 23.4787 106.044 23.7511C106.044 24.0236 106 24.2961 105.956 24.5686H93.3555C93.6 25.5904 94.0666 26.4078 94.8 27.0436C95.5333 27.6794 96.4444 27.9973 97.5333 27.9973C98.6222 27.9973 99.3111 27.7702 100 27.3388C100.711 26.9074 101.244 26.3397 101.644 25.6812L105.044 28.2925C104.378 29.3824 103.378 30.2452 102.044 30.9491C100.711 31.6303 99.2 31.9709 97.5555 31.9709H97.5333ZM97.4666 17.7566C96.4222 17.7566 95.5555 18.0745 94.8222 18.7103C94.0889 19.346 93.6 20.1862 93.3555 21.2307H101.667C101.422 20.277 100.933 19.4596 100.2 18.7784C99.4444 18.0972 98.5333 17.7566 97.4666 17.7566Z" fill="white"/>
<path d="M107.333 31.5395V15.2134L111.644 14.3506V16.871C112.533 14.941 114.244 13.9646 116.8 13.9646C119.356 13.9646 119.089 14.2598 120.067 14.8274C121.044 15.3951 121.8 16.2125 122.356 17.2797C122.911 18.3469 123.2 19.5958 123.2 21.049V31.5622H118.822V22.139C118.822 20.6403 118.489 19.5504 117.822 18.8919C117.156 18.2107 116.289 17.8928 115.2 17.8928C114.111 17.8928 113.467 18.2334 112.756 18.8919C112.044 19.5731 111.711 20.6403 111.711 22.139V31.5622H107.333V31.5395Z" fill="white"/>
<path d="M125.889 38.465C125.467 38.465 124.978 38.465 124.422 38.3969C123.889 38.3515 123.4 38.2607 122.956 38.1244L123.6 33.8556C124.2 34.0145 124.867 34.0827 125.578 34.0827C126.289 34.0827 127.111 33.8329 127.644 33.3333C128.178 32.8338 128.578 32.2207 128.8 31.4714L129.022 30.7448L122.356 14.3506H127.622L130.889 24.1826C131.2 25.0681 131.422 25.9764 131.6 26.9301C131.778 25.9764 132 25.0681 132.311 24.1826L135.578 14.3506H140.756L133.311 32.6294C132.6 34.3778 131.667 35.7856 130.533 36.8529C129.4 37.9201 127.822 38.465 125.844 38.465H125.889Z" fill="white"/>
<path d="M96.9333 43.3696V33.7647H98.6666V43.3696H96.9333Z" fill="white"/>
<path d="M102.844 43.5513C102.244 43.5513 101.689 43.3924 101.178 43.0745C100.667 42.7566 100.267 42.3251 99.9778 41.7802C99.6889 41.2352 99.5333 40.6449 99.5333 39.9864C99.5333 39.3279 99.6222 39.0327 99.8 38.6013C99.9778 38.1698 100.2 37.7838 100.511 37.4659C100.822 37.1253 101.156 36.8756 101.556 36.6939C101.956 36.5122 102.378 36.4214 102.844 36.4214C103.311 36.4214 103.889 36.535 104.2 36.762C104.533 36.9891 104.778 37.2843 104.956 37.6476V36.5577H106.689V43.4151H105V42.3024C104.822 42.6884 104.556 43.0063 104.222 43.2334C103.889 43.4605 103.422 43.5967 102.822 43.5967L102.844 43.5513ZM103.133 41.9391C103.511 41.9391 103.844 41.8483 104.133 41.6666C104.422 41.485 104.622 41.2579 104.778 40.94C104.933 40.6449 105 40.327 105 39.9637C105 39.6003 104.933 39.2825 104.778 38.9646C104.622 38.6694 104.4 38.4196 104.133 38.2379C103.844 38.0563 103.511 37.9655 103.133 37.9655C102.756 37.9655 102.444 38.0563 102.156 38.2379C101.867 38.4196 101.667 38.6467 101.511 38.9646C101.356 39.2597 101.289 39.6003 101.289 39.9637C101.289 40.327 101.356 40.6221 101.511 40.94C101.667 41.2352 101.889 41.485 102.156 41.6666C102.444 41.8483 102.756 41.9391 103.133 41.9391Z" fill="white"/>
<path d="M111.911 43.5513C111.311 43.5513 110.844 43.4378 110.511 43.188C110.178 42.9609 109.933 42.643 109.733 42.257V43.3696H108.044V33.7647H109.778V37.5795C109.956 37.2161 110.222 36.921 110.533 36.7166C110.867 36.4895 111.311 36.3987 111.889 36.3987C112.467 36.3987 112.778 36.4895 113.178 36.6712C113.578 36.8528 113.933 37.1253 114.222 37.4432C114.533 37.7611 114.756 38.1471 114.933 38.5785C115.111 39.01 115.2 39.4868 115.2 39.9637C115.2 40.4405 115.044 41.2125 114.756 41.7575C114.467 42.3024 114.067 42.7339 113.556 43.0518C113.067 43.3696 112.489 43.5286 111.889 43.5286L111.911 43.5513ZM111.622 41.9391C112 41.9391 112.311 41.8483 112.6 41.6666C112.889 41.485 113.089 41.2352 113.244 40.94C113.4 40.6449 113.467 40.3043 113.467 39.9637C113.467 39.6231 113.4 39.2825 113.244 38.9646C113.089 38.6694 112.867 38.4196 112.6 38.2379C112.311 38.0563 112 37.9655 111.622 37.9655C111.244 37.9655 110.911 38.0563 110.622 38.2379C110.333 38.4196 110.111 38.6694 109.956 38.9646C109.8 39.2597 109.733 39.6003 109.733 39.9637C109.733 40.327 109.8 40.6449 109.956 40.94C110.111 41.2352 110.333 41.485 110.622 41.6666C110.911 41.8483 111.244 41.9391 111.622 41.9391Z" fill="white"/>
<path d="M118.489 43.5513C117.356 43.5513 116.444 43.1426 115.711 42.3478L116.889 41.2579C117.378 41.8256 117.911 42.0981 118.467 42.0981C119.022 42.0981 119 42.03 119.156 41.8937C119.311 41.7575 119.4 41.5985 119.4 41.3942C119.4 41.1898 119.378 41.1671 119.311 41.0763C119.244 40.9854 119.133 40.8946 118.956 40.8265C118.778 40.7584 118.511 40.6676 118.156 40.5994C117.556 40.4405 117.111 40.2588 116.822 40.0545C116.533 39.8274 116.333 39.6003 116.244 39.3279C116.156 39.0554 116.111 38.7829 116.111 38.4877C116.111 37.8973 116.333 37.3978 116.778 36.9891C117.222 36.5804 117.822 36.3987 118.622 36.3987C119.422 36.3987 119.622 36.4895 120.022 36.6485C120.4 36.8074 120.778 37.1253 121.111 37.5795L119.844 38.5558C119.689 38.2834 119.489 38.1017 119.289 37.9882C119.089 37.8746 118.867 37.8065 118.644 37.8065C118.422 37.8065 118.2 37.8519 118.044 37.9428C117.889 38.0336 117.8 38.1925 117.8 38.3969C117.8 38.6013 117.844 38.624 117.956 38.7375C118.067 38.851 118.311 38.9646 118.711 39.0554C119.356 39.2143 119.867 39.4187 120.2 39.6458C120.533 39.8728 120.778 40.1226 120.911 40.3951C121.044 40.6676 121.111 40.9855 121.111 41.3261C121.111 41.6666 121 42.1208 120.778 42.4614C120.556 42.802 120.244 43.0518 119.844 43.2561C119.444 43.4605 119 43.5513 118.511 43.5513H118.489Z" fill="white"/>
<path d="M18.2889 20.1862C18.3556 20.2543 18.3778 20.2997 18.3778 20.4587C18.4445 21.0036 18.4222 21.7757 18.0445 22.366C17.6667 22.9564 16.9111 23.3651 15.5111 23.1154C15.4667 23.1154 15.2445 23.0472 15.1556 22.9791C13.6222 21.1626 12.1333 19.3234 10.7333 17.3479C10.0222 16.3261 9.33334 15.2816 8.71112 14.1462C8.55556 13.8511 8.40001 13.5559 8.24445 13.2607L8.13334 13.0336L8.00001 12.7384C7.8889 12.466 7.77779 12.1935 7.6889 11.8983C7.51112 11.3306 7.37779 10.7857 7.33334 10.2407C7.2889 9.69574 7.35556 9.1962 7.51112 8.71936C7.60001 8.49229 7.71112 8.26523 7.82223 8.06087C7.84445 8.01545 7.8889 7.94733 7.93334 7.90192L7.97779 7.8338C7.97779 7.81109 7.97779 7.81109 7.97779 7.78839V7.74297C8.0889 7.62944 8.17779 7.56132 8.26667 7.47049C8.64445 7.12989 9.04445 6.90283 9.53334 6.78929C10.4889 6.51682 11.6667 6.67576 12.7778 6.99365L12.9778 7.03907L13.0889 7.08448L13.3333 7.1526C13.4889 7.19801 13.6445 7.26613 13.8 7.31155C14.1111 7.42508 14.4222 7.53861 14.7111 7.67485C15.3111 7.92463 15.8667 8.19711 16.4445 8.46959C18.6889 9.60492 20.7333 10.9219 22.7111 12.3524C24.6889 13.7829 26.5556 15.3497 28.3333 17.03C29.2222 17.8701 30.0889 18.733 30.9111 19.6185C31.7333 20.5041 32.5556 21.3897 33.3556 22.3206C34.9556 24.1599 36.4667 26.0899 37.8445 28.2016C38.1778 28.7466 38.5111 29.2916 38.8222 29.8592L39.0889 30.3361L39.4667 31.1308C39.6 31.4033 39.6889 31.6758 39.8 31.9255C39.8889 32.198 39.9778 32.4705 40.0445 32.7203L40.1333 33.1063L40.1778 33.3106C40.1778 33.3788 40.1778 33.4242 40.1778 33.4923L40.2222 33.8556V34.1962C40.2222 34.6503 40.1111 35.0591 39.9333 35.4451C39.8445 35.6267 39.7333 35.8084 39.5778 35.99C39.4222 36.1717 39.2444 36.3079 39.0889 36.4214C39 36.4669 38.9111 36.535 38.8222 36.5804C38.7333 36.6258 38.6444 36.6712 38.5333 36.7166C38.4445 36.762 38.3333 36.7848 38.2222 36.8075C38.1111 36.8075 38.0222 36.8529 37.8889 36.8756C37.7778 36.8756 37.6667 36.8983 37.5556 36.921H37.2445C37.1111 36.921 36.9556 36.921 36.8222 36.921C36.6889 36.921 36.5333 36.8756 36.3778 36.8756C36.3111 36.8756 36.2222 36.8756 36.1556 36.8302L35.9111 36.7848C35.6 36.7166 35.2889 36.6258 34.9778 36.535C34.6667 36.4214 34.3333 36.3306 34.0445 36.1944L33.8222 36.1036L33.6889 36.0354L33.4222 35.9219L32.9111 35.6948C32.5778 35.5359 32.2445 35.3769 31.9333 35.218C31.9333 35.218 31.2445 34.8093 30.2222 34.1508C29.2 33.4696 27.8889 32.5159 26.5333 31.4487C25.3556 30.5177 24.1333 29.4732 23.0889 28.4968C20.2222 25.931 19.6 24.8638 20.1556 24.7729C20.7111 24.6821 22.4445 25.5223 24.4889 26.6349C24.3333 26.4759 26.1111 27.5432 28.2 28.7012C29.5556 29.4505 31.0667 30.2225 32.2222 30.7675C33.3778 31.3125 34.1778 31.6304 34.1778 31.6304C34.4667 31.7666 34.7333 31.8801 35 32.0164L35.3111 32.1526L35.2 31.9482C35.0667 31.7212 34.9556 31.4941 34.8222 31.267C34.5556 30.8129 34.2667 30.3588 33.9556 29.9046C32.7333 28.0881 31.3111 26.3397 29.8222 24.6367C29.0667 23.7966 28.3111 22.9564 27.5333 22.139C26.7556 21.3215 25.9556 20.5495 25.1333 19.7775C23.4889 18.2561 21.7556 16.8483 19.9556 15.5313C18.1556 14.2371 16.2667 13.0563 14.3333 12.1026C13.8445 11.8756 13.3778 11.6485 12.8889 11.4442C12.6445 11.3533 12.4222 11.2625 12.1778 11.1717C12.0667 11.1263 11.9333 11.0808 11.8222 11.0581L11.6889 11.0127C11.7333 11.1263 11.8 11.2398 11.8445 11.3533C11.9556 11.5804 12.0667 11.8075 12.2 12.0345C12.7111 12.9428 13.3111 13.8738 13.9556 14.782C15.2445 16.5986 16.6667 18.3924 18.1333 20.1181L18.2889 20.1862Z" fill="white"/>
<path d="M24.6889 16.5986C24.6222 16.644 24.6 16.6667 24.4889 16.644C24.1111 16.6667 23.5556 16.5986 23.1778 16.2807C22.7778 15.9628 22.5333 15.3951 22.8 14.3733C22.8 14.3279 22.8667 14.1917 22.9111 14.1235C24.2667 13.1017 25.6222 12.1254 27.0222 11.1717C28.0444 10.4678 29.0889 9.80929 30.1778 9.1735C31.2667 8.53772 32.3556 7.92464 33.5778 7.42509C34.2 7.17532 34.8222 6.92554 35.5778 6.7666C35.6667 6.7666 35.7555 6.72119 35.8667 6.72119H36.0444C36.1111 6.67577 36.2 6.67577 36.2667 6.67577C36.4222 6.67577 36.5555 6.65307 36.7111 6.67577H36.9333L37.1555 6.69848C37.7333 6.7666 38.2667 6.99366 38.6667 7.40238C39.0667 7.8111 39.2889 8.33336 39.3555 8.92373C39.4 9.21891 39.3778 9.5141 39.3555 9.83199C39.3333 9.99094 39.3111 10.1272 39.2889 10.2861L39.2444 10.4678C39.2444 10.5132 39.2444 10.5586 39.2222 10.604C39.0444 11.3533 38.8 11.9891 38.5333 12.6249C38.0667 13.6921 37.5111 14.6685 36.9333 15.6222C36.3555 16.5759 35.7333 17.4841 35.0667 18.3697C33.7556 20.1408 32.3556 21.7984 30.8444 23.3651C29.3556 24.9319 27.7778 26.4305 26.1111 27.8384C24.4667 29.2235 22.7778 30.5631 21.0444 31.812C19.2889 33.0609 17.4889 34.2643 15.5333 35.2861C15.0444 35.5359 14.5333 35.7857 14.0222 36.0127C13.4889 36.2398 12.9778 36.4442 12.3778 36.6258C12.1111 36.7166 11.8667 36.7621 11.6 36.8075C11.4667 36.8075 11.3556 36.8529 11.2222 36.8756H10.8444C10.3556 36.921 9.91111 36.8756 9.53333 36.6939C9.33333 36.6031 9.15555 36.4896 9 36.3306C8.82222 36.1717 8.71111 35.99 8.62222 35.8084C8.44444 35.4224 8.35555 34.9682 8.37778 34.4687C8.37778 33.9918 8.51111 33.4696 8.66666 32.9473L8.73333 32.7657V32.6749C8.75555 32.6749 8.77778 32.6067 8.77778 32.6067L8.86667 32.3797C8.93333 32.2434 8.97778 32.0845 9.04444 31.9483C9.28889 31.4033 9.55555 30.881 9.82222 30.3815C10.0889 29.882 10.3778 29.4051 10.6667 28.9283L11.0444 28.3152C11.4667 27.6567 11.9111 26.9982 12.3778 26.3624C12.3778 26.3624 13.1111 25.4314 14.1778 24.2734C15.2444 23.0927 16.6222 21.6849 17.8222 20.5949C19.8222 18.6876 20.6222 18.3243 20.6444 18.733C20.6667 19.1417 19.9556 20.3679 19 21.7757C19.1333 21.6621 17.9556 23.297 16.8 25C16.2222 25.8402 15.6444 26.7257 15.2222 27.3842C14.8 28.0427 14.5333 28.4741 14.5333 28.4741C14.1111 29.0645 13.7111 29.6776 13.3111 30.2907L13.0667 30.6994C12.9333 30.9037 12.8 31.1308 12.6889 31.3352C12.4444 31.7666 12.2 32.198 12 32.6067C11.8889 32.8111 11.8 33.0382 11.7111 33.2425C11.6667 33.3561 11.6222 33.4469 11.5778 33.5604L11.5333 33.6967C11.5333 33.6967 11.5556 33.6967 11.5778 33.6967C11.6 33.6967 11.6222 33.6967 11.6667 33.674L11.8222 33.6285C11.9333 33.6058 12.0444 33.5604 12.1333 33.515C13 33.1971 13.8667 32.7657 14.7333 32.2889C16.4444 31.3352 18.1333 30.2225 19.7556 29.0191C21.3778 27.8384 22.9778 26.5441 24.5111 25.2498C26.0444 23.9328 27.5111 22.5477 28.8889 21.0718C30.2667 19.5958 31.5778 18.0518 32.7555 16.4396C33.3555 15.6222 33.9111 14.8047 34.4222 13.9646C34.9333 13.1245 35.4222 12.2616 35.8 11.3988C36.0222 10.8992 36.2 10.377 36.3111 9.92282V9.78658C36.3333 9.78658 36.1556 9.83199 36.1556 9.83199C35.7111 9.92282 35.2222 10.1045 34.7111 10.3088C33.6889 10.7403 32.6667 11.2852 31.6667 11.8983C30.6667 12.4887 29.6667 13.1472 28.6667 13.8057C27.3111 14.7139 25.9778 15.6903 24.6889 16.6667V16.5986Z" fill="white"/>
</svg>
